<svg xmlns="http://www.w3.org/2000/svg" width="21" height="19.5" viewBox="0 0 21 19.5">
  <path id="Trazado_3357" data-name="Trazado 3357" d="M7.5,8.25h9m-9,3H12M2.25,12.76a3.219,3.219,0,0,0,2.707,3.227q1.693.249,3.423.379a1.142,1.142,0,0,1,.865.5L12,21l2.755-4.133a1.14,1.14,0,0,1,.865-.5q1.718-.128,3.423-.379a3.218,3.218,0,0,0,2.707-3.228V6.741a3.218,3.218,0,0,0-2.707-3.228,48.6,48.6,0,0,0-14.086,0A3.219,3.219,0,0,0,2.25,6.741v6.018Z" transform="translate(-1.5 -2.25)" fill="none" stroke="#195186" stroke-linecap="round" stroke-linejoin="round" stroke-width="1.5"/>
</svg>
