<svg xmlns="http://www.w3.org/2000/svg" width="19.602" height="19.602" viewBox="0 0 19.602 19.602">
  <path id="whatsapp-brands-solid-full" d="M112.666,98.848A9.716,9.716,0,0,0,97.378,110.57L96,115.6l5.15-1.352a9.684,9.684,0,0,0,4.642,1.181h0a9.652,9.652,0,0,0,6.869-16.583ZM105.8,113.795a8.059,8.059,0,0,1-4.113-1.124l-.293-.175-3.054.8.814-2.98-.193-.306a8.089,8.089,0,1,1,15-4.292A8.164,8.164,0,0,1,105.8,113.795Zm4.428-6.047c-.241-.123-1.435-.709-1.658-.788s-.385-.123-.547.123-.626.788-.77.954-.284.184-.525.061a6.606,6.606,0,0,1-3.3-2.888c-.249-.429.249-.4.713-1.326a.45.45,0,0,0-.022-.424c-.061-.123-.547-1.317-.748-1.8s-.4-.407-.547-.416-.3-.009-.464-.009a.9.9,0,0,0-.648.3,2.727,2.727,0,0,0-.849,2.026,4.755,4.755,0,0,0,.989,2.511,10.846,10.846,0,0,0,4.148,3.667,4.749,4.749,0,0,0,2.914.608,2.486,2.486,0,0,0,1.636-1.155,2.03,2.03,0,0,0,.14-1.155C110.627,107.927,110.465,107.866,110.224,107.748Z" transform="translate(-96 -96)" fill="#195186"/>
</svg>
