<svg xmlns="http://www.w3.org/2000/svg" width="21" height="21" viewBox="0 0 21 21">
  <path id="Trazado_3355" data-name="Trazado 3355" d="M2.25,6.75a15,15,0,0,0,15,15H19.5a2.25,2.25,0,0,0,2.25-2.25V18.128a1.124,1.124,0,0,0-.852-1.091l-4.423-1.106a1.124,1.124,0,0,0-1.173.417l-.97,1.293a1.061,1.061,0,0,1-1.21.38,12.035,12.035,0,0,1-7.143-7.143,1.061,1.061,0,0,1,.38-1.21L7.652,8.7a1.123,1.123,0,0,0,.417-1.173L6.963,3.1A1.125,1.125,0,0,0,5.872,2.25H4.5A2.25,2.25,0,0,0,2.25,4.5Z" transform="translate(-1.5 -1.5)" fill="none" stroke="#195186" stroke-linecap="round" stroke-linejoin="round" stroke-width="1.5"/>
</svg>
