<svg xmlns="http://www.w3.org/2000/svg" width="220.607" height="47.757" viewBox="0 0 220.607 47.757">
  <g id="Logo_el_dorado" data-name="Logo el dorado" transform="translate(-30.1 -38.9)">
    <g id="Capa_1" transform="translate(30.1 38.9)">
      <g id="Grupo_3" data-name="Grupo 3" transform="translate(0)">
        <g id="Grupo_1" data-name="Grupo 1">
          <path id="Trazado_3318" data-name="Trazado 3318" d="M149.2,78.957H133.633a1.266,1.266,0,0,1-.942-.4,1.183,1.183,0,0,1-.4-.918V68.6a1.571,1.571,0,0,0-.518-1.2,1.677,1.677,0,0,0-2.378,0,1.635,1.635,0,0,0-.495,1.2v9.043a4.363,4.363,0,0,0,.4,1.837,4.8,4.8,0,0,0,2.59,2.5,4.643,4.643,0,0,0,1.884.377h15.472a1.7,1.7,0,1,0,0-3.391Z" transform="translate(-105.634 -60.306)" fill="#ffd244"/>
          <path id="Trazado_3319" data-name="Trazado 3319" d="M50.47,78.957H34.9a1.266,1.266,0,0,1-.942-.4,1.183,1.183,0,0,1-.4-.918V76.32H48.845a1.482,1.482,0,0,0,1.13-.495,1.767,1.767,0,0,0,0-2.4,1.482,1.482,0,0,0-1.13-.495H33.538V71.61a1.268,1.268,0,0,1,.4-.918,1.362,1.362,0,0,1,.942-.4H50.446a1.7,1.7,0,1,0,0-3.391H34.975a4.643,4.643,0,0,0-1.884.377,5.369,5.369,0,0,0-1.554,1.013A4.682,4.682,0,0,0,30.5,69.773a4.363,4.363,0,0,0-.4,1.837v6.029a4.033,4.033,0,0,0,.4,1.837,5.092,5.092,0,0,0,1.036,1.484,5.251,5.251,0,0,0,1.531,1.013,4.643,4.643,0,0,0,1.884.377H50.423a1.7,1.7,0,1,0,0-3.391Z" transform="translate(-30.1 -60.306)" fill="#ffd244"/>
          <path id="Trazado_3320" data-name="Trazado 3320" d="M471.7,69.437a7.535,7.535,0,0,0-1.931-1.837,5.091,5.091,0,0,0-2.59-.8H456.723a5.306,5.306,0,0,0-2.732.706,6.934,6.934,0,0,0-2.049,1.837,8.859,8.859,0,0,0-1.3,2.473,8.474,8.474,0,0,0-.447,2.708,8.723,8.723,0,0,0,.424,2.661,8.24,8.24,0,0,0,1.225,2.449,7.536,7.536,0,0,0,1.931,1.837,5.09,5.09,0,0,0,2.59.8h10.456a5.306,5.306,0,0,0,2.732-.706,6.934,6.934,0,0,0,2.049-1.837,8.859,8.859,0,0,0,1.3-2.473,8.476,8.476,0,0,0,.447-2.708,8.724,8.724,0,0,0-.424-2.661A8.24,8.24,0,0,0,471.7,69.437Zm-1.813,6.523a3.862,3.862,0,0,1-.612,1.389,3.687,3.687,0,0,1-1.225,1.083,3.844,3.844,0,0,1-1.978.447h-8.619a3.878,3.878,0,0,1-2-.447,3.6,3.6,0,0,1-1.2-1.083,3.862,3.862,0,0,1-.612-1.389,8.154,8.154,0,0,1-.165-1.413,6.361,6.361,0,0,1,.165-1.413,3.692,3.692,0,0,1,.612-1.389,4.118,4.118,0,0,1,1.2-1.083,3.878,3.878,0,0,1,2-.447h8.619a3.844,3.844,0,0,1,1.978.447,3.935,3.935,0,0,1,1.225,1.083,3.862,3.862,0,0,1,.612,1.389,6.137,6.137,0,0,1,0,2.826Z" transform="translate(-351.271 -60.23)" fill="#ffd244"/>
          <path id="Trazado_3321" data-name="Trazado 3321" d="M677.091,77.082l-8.619-11.539a4.118,4.118,0,0,0-1.554-1.272,4.646,4.646,0,0,0-2.025-.471,4.544,4.544,0,0,0-2.119.518,4.485,4.485,0,0,0-1.6,1.342l-8.619,11.61a1.494,1.494,0,0,0-.353,1.036,1.713,1.713,0,0,0,.495,1.2,1.635,1.635,0,0,0,1.2.495,1.729,1.729,0,0,0,1.319-.636l1.907-2.52h15.566l1.86,2.5a1.59,1.59,0,0,0,1.342.683,1.5,1.5,0,0,0,1.2-.495,1.635,1.635,0,0,0,.494-1.2,1,1,0,0,0-.141-.659,2.153,2.153,0,0,0-.353-.542Zm-17.426-3.674,3.862-5.134a3.5,3.5,0,0,1,.589-.612,1.191,1.191,0,0,1,.754-.33,1.142,1.142,0,0,1,.754.33,7.447,7.447,0,0,1,.612.612l3.839,5.134H659.642Z" transform="translate(-505.702 -57.936)" fill="#ffd244"/>
          <path id="Trazado_3322" data-name="Trazado 3322" d="M786.63,69.343a6.934,6.934,0,0,0-2.049-1.837,5.306,5.306,0,0,0-2.732-.706H766.9a1.688,1.688,0,0,0-1.7,1.7V80.553a1.688,1.688,0,0,0,1.7,1.7H782.2a5.09,5.09,0,0,0,2.59-.8,7.156,7.156,0,0,0,1.931-1.837,8.241,8.241,0,0,0,1.225-2.449,8.838,8.838,0,0,0,.424-2.661,8.474,8.474,0,0,0-.447-2.708,8.254,8.254,0,0,0-1.3-2.473Zm-1.719,6.617a3.862,3.862,0,0,1-.612,1.389,3.934,3.934,0,0,1-1.224,1.083,3.845,3.845,0,0,1-1.978.447H768.568V70.215H781.1a3.845,3.845,0,0,1,1.978.447,3.934,3.934,0,0,1,1.224,1.083,3.862,3.862,0,0,1,.612,1.389,7.9,7.9,0,0,1,.165,1.413,6.211,6.211,0,0,1-.165,1.413Z" transform="translate(-592.091 -60.23)" fill="#ffd244"/>
          <path id="Trazado_3323" data-name="Trazado 3323" d="M891.325,71.887a8.238,8.238,0,0,0-1.225-2.449,7.534,7.534,0,0,0-1.931-1.837,5.09,5.09,0,0,0-2.59-.8H875.123a5.306,5.306,0,0,0-2.732.706,6.935,6.935,0,0,0-2.049,1.837,8.857,8.857,0,0,0-1.3,2.473,8.476,8.476,0,0,0-.447,2.708,8.723,8.723,0,0,0,.424,2.661,8.24,8.24,0,0,0,1.225,2.449,7.535,7.535,0,0,0,1.931,1.837,5.09,5.09,0,0,0,2.59.8h10.456a5.306,5.306,0,0,0,2.732-.706,6.934,6.934,0,0,0,2.049-1.837,8.857,8.857,0,0,0,1.3-2.473,8.474,8.474,0,0,0,.447-2.708,8.722,8.722,0,0,0-.424-2.661Zm-3.014,4.074a3.863,3.863,0,0,1-.612,1.389,3.935,3.935,0,0,1-1.225,1.083,3.845,3.845,0,0,1-1.978.447h-8.619a3.821,3.821,0,0,1-2-.447,3.6,3.6,0,0,1-1.2-1.083,3.862,3.862,0,0,1-.612-1.389,6.137,6.137,0,0,1,0-2.826,3.692,3.692,0,0,1,.612-1.389,4.118,4.118,0,0,1,1.2-1.083,3.878,3.878,0,0,1,2-.447H884.5a3.845,3.845,0,0,1,1.978.447,3.935,3.935,0,0,1,1.225,1.083,3.863,3.863,0,0,1,.612,1.389,6.135,6.135,0,0,1,0,2.826Z" transform="translate(-671.142 -60.23)" fill="#ffd244"/>
          <path id="Trazado_3324" data-name="Trazado 3324" d="M572.7,76.043a5.251,5.251,0,0,0,1.531-1.013,4.682,4.682,0,0,0,1.036-1.484,4.593,4.593,0,0,0-1.036-5.157,5.251,5.251,0,0,0-1.531-1.013,4.533,4.533,0,0,0-1.86-.377H555.3a1.689,1.689,0,0,0-1.7,1.7V80.753a1.689,1.689,0,0,0,1.7,1.7,1.73,1.73,0,0,0,1.7-1.7V76.42h5.369L573.1,82.33a1.483,1.483,0,0,0,1.224.118,1.788,1.788,0,0,0,.989-.824,1.63,1.63,0,0,0,.165-1.272,1.525,1.525,0,0,0-.754-.989l-5.369-2.944h1.46a4.533,4.533,0,0,0,1.86-.377ZM556.991,73V70.367h13.965a1.362,1.362,0,0,1,.942.4,1.183,1.183,0,0,1,.4.918,1.32,1.32,0,0,1-.4.942,1.336,1.336,0,0,1-.942.377Z" transform="translate(-430.321 -60.383)" fill="#ffd244"/>
          <path id="Trazado_3325" data-name="Trazado 3325" d="M275.052,43.963a14.12,14.12,0,0,0-4.1-3.65,10.526,10.526,0,0,0-5.44-1.413H230.638a3.264,3.264,0,0,0-2.214.824.635.635,0,0,0-.188.165,3.27,3.27,0,0,0-.989,2.4v7.724l18.086,1.672-5.016-9.255h5.7a2.245,2.245,0,0,1,1.46.565s.024.047.047.047l8.9,9.655,17.167,1.6L256.4,55.879l-8.878,9.561c-.024.024-.047.071-.094.094a2.3,2.3,0,0,1-1.413.565H240.27l4.992-9.161L227.2,58.611v7.724a3.351,3.351,0,0,0,.942,2.355l.047.047a3.27,3.27,0,0,0,2.4.989h35.583a10.1,10.1,0,0,0,5.157-1.6,14.243,14.243,0,0,0,3.862-3.65,16.3,16.3,0,0,0,2.426-4.875,17.528,17.528,0,0,0,.848-5.3,17.742,17.742,0,0,0-.895-5.416,16.535,16.535,0,0,0-2.59-4.945Z" transform="translate(-180.785 -38.9)" fill="#ffd244"/>
        </g>
        <g id="Grupo_2" data-name="Grupo 2" transform="translate(46.462 39.868)">
          <path id="Trazado_3326" data-name="Trazado 3326" d="M227.4,210.2h1.3l4,5.981h0V210.2h.989v7.277h-1.248l-4.05-5.981h0v5.981H227.4Z" transform="translate(-227.4 -209.729)" fill="#fff"/>
          <path id="Trazado_3327" data-name="Trazado 3327" d="M265.486,225.2h-.918v-.754h0a1.443,1.443,0,0,1-.612.636,1.923,1.923,0,0,1-.989.236,1.615,1.615,0,0,1-.683-.118,1.7,1.7,0,0,1-.565-.33,1.494,1.494,0,0,1-.377-.589,2.281,2.281,0,0,1-.141-.848V220.3h.918v2.873a1.472,1.472,0,0,0,.094.589,1.632,1.632,0,0,0,.235.4.888.888,0,0,0,.353.212,1.334,1.334,0,0,0,.424.071,1.545,1.545,0,0,0,.542-.094,1.336,1.336,0,0,0,.424-.283,1.555,1.555,0,0,0,.283-.518,2.289,2.289,0,0,0,.094-.73v-2.5h.918V225.2Z" transform="translate(-253.24 -217.451)" fill="#fff"/>
          <path id="Trazado_3328" data-name="Trazado 3328" d="M285.089,222.873a1.277,1.277,0,0,0,.141.589,1.65,1.65,0,0,0,.353.447,1.828,1.828,0,0,0,.518.283,1.757,1.757,0,0,0,.612.094,1.525,1.525,0,0,0,.754-.212,3,3,0,0,0,.589-.518l.706.542a2.58,2.58,0,0,1-2.167.989c-.942,0-.73-.071-1.036-.188a2.67,2.67,0,0,1-.8-.542,2.539,2.539,0,0,1-.495-.8,2.992,2.992,0,0,1,.024-2.025,2.351,2.351,0,0,1,.518-.8,2.4,2.4,0,0,1,.8-.542A2.355,2.355,0,0,1,286.62,220a2.293,2.293,0,0,1,1.083.235,2.018,2.018,0,0,1,.73.589,2.488,2.488,0,0,1,.424.824,3.077,3.077,0,0,1,.118.918v.33h-3.909Zm2.92-.73a2.024,2.024,0,0,0-.094-.565,1.067,1.067,0,0,0-.259-.447,1.257,1.257,0,0,0-.447-.306,1.575,1.575,0,0,0-.612-.118,1.668,1.668,0,0,0-.612.118,1.406,1.406,0,0,0-.471.33,1.381,1.381,0,0,0-.306.447,1.266,1.266,0,0,0-.118.495h2.92Z" transform="translate(-270.748 -217.221)" fill="#fff"/>
          <path id="Trazado_3329" data-name="Trazado 3329" d="M307.1,220.5h1.06l1.46,3.721,1.389-3.721H312l-1.907,4.875h-1.013Z" transform="translate(-288.331 -217.603)" fill="#fff"/>
          <path id="Trazado_3330" data-name="Trazado 3330" d="M330.4,222.543a2.331,2.331,0,0,1,.212-.989,2.49,2.49,0,0,1,1.366-1.342,2.525,2.525,0,0,1,2.025,0,2.782,2.782,0,0,1,.824.542,2.3,2.3,0,0,1,.542.8,2.331,2.331,0,0,1,.212.989,2.519,2.519,0,0,1-.212,1.013,2.4,2.4,0,0,1-.542.8,2.781,2.781,0,0,1-.824.542,2.525,2.525,0,0,1-2.025,0,2.78,2.78,0,0,1-.824-.542,2.3,2.3,0,0,1-.542-.8A2.362,2.362,0,0,1,330.4,222.543Zm.989,0a2.188,2.188,0,0,0,.118.683,1.6,1.6,0,0,0,.33.542,1.886,1.886,0,0,0,.495.353,1.5,1.5,0,0,0,.659.118,1.933,1.933,0,0,0,.659-.118,1.564,1.564,0,0,0,.495-.353,1.753,1.753,0,0,0,.33-.542,2.039,2.039,0,0,0,0-1.366,1.6,1.6,0,0,0-.33-.542,1.886,1.886,0,0,0-.495-.353,1.5,1.5,0,0,0-.659-.118,1.934,1.934,0,0,0-.659.118,1.564,1.564,0,0,0-.495.353,1.753,1.753,0,0,0-.33.542A2.188,2.188,0,0,0,331.389,222.543Z" transform="translate(-306.145 -217.221)" fill="#fff"/>
          <path id="Trazado_3331" data-name="Trazado 3331" d="M369.4,220.118h.871v.754h0a.47.47,0,0,1,.165-.259,1.3,1.3,0,0,1,.33-.283,2.2,2.2,0,0,1,.471-.235,1.957,1.957,0,0,1,1.531.141,1.748,1.748,0,0,1,.612.683,1.677,1.677,0,0,1,.659-.683,2.015,2.015,0,0,1,.871-.235,2.37,2.37,0,0,1,.918.188,1.439,1.439,0,0,1,.565.495,1.753,1.753,0,0,1,.283.683,4.4,4.4,0,0,1,.071.8v2.826h-.918v-2.708a2.109,2.109,0,0,0-.047-.542,1.25,1.25,0,0,0-.141-.447.7.7,0,0,0-.33-.306,1.228,1.228,0,0,0-.542-.118,1.16,1.16,0,0,0-.966.4,1.66,1.66,0,0,0-.283,1.06v2.661H372.6v-2.543a2.689,2.689,0,0,0-.047-.636,1.522,1.522,0,0,0-.141-.495.694.694,0,0,0-.306-.33,1.155,1.155,0,0,0-.542-.118.88.88,0,0,0-.471.094,1.231,1.231,0,0,0-.4.283,1.7,1.7,0,0,0-.283.495,2.231,2.231,0,0,0-.094.706v2.52H369.4v-4.851Z" transform="translate(-335.96 -217.221)" fill="#fff"/>
          <path id="Trazado_3332" data-name="Trazado 3332" d="M410.986,225.2h-.918v-.754h0a1.443,1.443,0,0,1-.612.636,1.923,1.923,0,0,1-.989.236,1.616,1.616,0,0,1-.683-.118,1.7,1.7,0,0,1-.565-.33,1.5,1.5,0,0,1-.377-.589,2.282,2.282,0,0,1-.141-.848V220.3h.918v2.873a1.471,1.471,0,0,0,.094.589,1.632,1.632,0,0,0,.235.4.888.888,0,0,0,.353.212,1.334,1.334,0,0,0,.424.071,1.545,1.545,0,0,0,.542-.094,1.336,1.336,0,0,0,.424-.283,1.554,1.554,0,0,0,.283-.518,2.29,2.29,0,0,0,.094-.73v-2.5h.918V225.2Z" transform="translate(-364.477 -217.451)" fill="#fff"/>
          <path id="Trazado_3333" data-name="Trazado 3333" d="M430.9,220.118h.918v.754h0a1.443,1.443,0,0,1,.612-.636,1.923,1.923,0,0,1,.989-.235,1.9,1.9,0,0,1,1.248.447,1.494,1.494,0,0,1,.377.589,2.282,2.282,0,0,1,.141.848v3.132h-.918v-2.873a1.471,1.471,0,0,0-.094-.589,1.632,1.632,0,0,0-.235-.4.887.887,0,0,0-.353-.212,1.334,1.334,0,0,0-.424-.071,1.545,1.545,0,0,0-.542.094,1.336,1.336,0,0,0-.424.283,1.554,1.554,0,0,0-.283.518,2.288,2.288,0,0,0-.094.73v2.5H430.9v-4.875Z" transform="translate(-382.978 -217.221)" fill="#fff"/>
          <path id="Trazado_3334" data-name="Trazado 3334" d="M459.363,215.948h-.918v-.706h0a1.855,1.855,0,0,1-.73.612,2.3,2.3,0,0,1-.966.212,2.968,2.968,0,0,1-1.013-.188,2.305,2.305,0,0,1-.777-.542,2.54,2.54,0,0,1-.495-.8,3.192,3.192,0,0,1,0-2.025,2.326,2.326,0,0,1,1.272-1.342,2.355,2.355,0,0,1,1.013-.188,2.256,2.256,0,0,1,.989.212,1.639,1.639,0,0,1,.707.612h0v-3.6h.918v7.771Zm-2.52-.73a1.933,1.933,0,0,0,.659-.118,1.563,1.563,0,0,0,.495-.353,1.752,1.752,0,0,0,.33-.542,2.038,2.038,0,0,0,0-1.366,1.6,1.6,0,0,0-.33-.542,1.885,1.885,0,0,0-.495-.353,1.5,1.5,0,0,0-.659-.118,1.933,1.933,0,0,0-.659.118,1.563,1.563,0,0,0-.495.353,1.752,1.752,0,0,0-.33.542,2.039,2.039,0,0,0,0,1.366,1.6,1.6,0,0,0,.33.542,1.885,1.885,0,0,0,.495.353A1.5,1.5,0,0,0,456.843,215.218Z" transform="translate(-400.867 -208.2)" fill="#fff"/>
          <path id="Trazado_3335" data-name="Trazado 3335" d="M480.8,222.543a2.331,2.331,0,0,1,.212-.989,2.49,2.49,0,0,1,1.366-1.342,2.525,2.525,0,0,1,2.025,0,2.782,2.782,0,0,1,.824.542,2.3,2.3,0,0,1,.542.8,2.331,2.331,0,0,1,.212.989,2.519,2.519,0,0,1-.212,1.013,2.4,2.4,0,0,1-.542.8,2.78,2.78,0,0,1-.824.542,2.525,2.525,0,0,1-2.025,0,2.78,2.78,0,0,1-.824-.542,2.3,2.3,0,0,1-.542-.8A2.361,2.361,0,0,1,480.8,222.543Zm.989,0a2.188,2.188,0,0,0,.118.683,1.6,1.6,0,0,0,.33.542,1.885,1.885,0,0,0,.495.353,1.5,1.5,0,0,0,.659.118,1.933,1.933,0,0,0,.659-.118,1.563,1.563,0,0,0,.495-.353,1.753,1.753,0,0,0,.33-.542,2.039,2.039,0,0,0,0-1.366,1.6,1.6,0,0,0-.33-.542,1.885,1.885,0,0,0-.495-.353,1.5,1.5,0,0,0-.659-.118,1.934,1.934,0,0,0-.659.118,1.563,1.563,0,0,0-.495.353,1.752,1.752,0,0,0-.33.542A2.188,2.188,0,0,0,481.789,222.543Z" transform="translate(-421.127 -217.221)" fill="#fff"/>
          <path id="Trazado_3336" data-name="Trazado 3336" d="M508.583,236.966a.593.593,0,0,1-.471-.212.628.628,0,0,1-.212-.471.593.593,0,0,1,.212-.471.628.628,0,0,1,.471-.212.593.593,0,0,1,.471.212.628.628,0,0,1,.212.471.593.593,0,0,1-.212.471A.628.628,0,0,1,508.583,236.966Z" transform="translate(-441.845 -229.148)" fill="#fff"/>
          <path id="Trazado_3337" data-name="Trazado 3337" d="M526.2,210.2h1.3l4,5.981h0V210.2h.989v7.277H531.24l-4.05-5.981h0v5.981H526.2Z" transform="translate(-455.836 -209.729)" fill="#fff"/>
          <path id="Trazado_3338" data-name="Trazado 3338" d="M564.386,225.2h-.918v-.754h0a1.443,1.443,0,0,1-.612.636,1.923,1.923,0,0,1-.989.236,1.616,1.616,0,0,1-.683-.118,1.7,1.7,0,0,1-.565-.33,1.494,1.494,0,0,1-.377-.589,2.282,2.282,0,0,1-.141-.848V220.3h.918v2.873a1.471,1.471,0,0,0,.094.589,1.632,1.632,0,0,0,.235.4.888.888,0,0,0,.353.212,1.334,1.334,0,0,0,.424.071,1.545,1.545,0,0,0,.542-.094,1.336,1.336,0,0,0,.424-.283,1.554,1.554,0,0,0,.283-.518,2.29,2.29,0,0,0,.094-.73v-2.5h.918V225.2Z" transform="translate(-481.752 -217.451)" fill="#fff"/>
          <path id="Trazado_3339" data-name="Trazado 3339" d="M583.989,222.873a1.277,1.277,0,0,0,.141.589,1.652,1.652,0,0,0,.353.447,1.828,1.828,0,0,0,.518.283,1.756,1.756,0,0,0,.612.094,1.526,1.526,0,0,0,.754-.212,3,3,0,0,0,.589-.518l.706.542a2.58,2.58,0,0,1-2.167.989c-.942,0-.73-.071-1.036-.188a2.67,2.67,0,0,1-.8-.542,2.539,2.539,0,0,1-.495-.8,2.991,2.991,0,0,1,.024-2.025,2.351,2.351,0,0,1,.518-.8,2.4,2.4,0,0,1,.8-.542A2.355,2.355,0,0,1,585.52,220a2.293,2.293,0,0,1,1.083.235,2.017,2.017,0,0,1,.73.589,2.487,2.487,0,0,1,.424.824,3.077,3.077,0,0,1,.118.918v.33h-3.909Zm2.92-.73a2.023,2.023,0,0,0-.094-.565,1.068,1.068,0,0,0-.259-.447,1.256,1.256,0,0,0-.447-.306,1.575,1.575,0,0,0-.612-.118,1.667,1.667,0,0,0-.612.118,1.405,1.405,0,0,0-.471.33,1.38,1.38,0,0,0-.306.447,1.265,1.265,0,0,0-.118.495h2.92Z" transform="translate(-499.26 -217.221)" fill="#fff"/>
          <path id="Trazado_3340" data-name="Trazado 3340" d="M606,220.5h1.06l1.46,3.721,1.389-3.721h.989l-1.907,4.875h-1.013Z" transform="translate(-516.844 -217.603)" fill="#fff"/>
          <path id="Trazado_3341" data-name="Trazado 3341" d="M629.636,220.63a2.682,2.682,0,0,1,.895-.542,3.212,3.212,0,0,1,1.036-.188,2.689,2.689,0,0,1,.918.141,2.037,2.037,0,0,1,.636.353,1.275,1.275,0,0,1,.353.518,1.768,1.768,0,0,1,.118.612v2.967a2.159,2.159,0,0,0,.023.4h-.824c0-.235-.024-.495-.024-.73h0a1.753,1.753,0,0,1-.73.659,2.145,2.145,0,0,1-.965.188,1.437,1.437,0,0,1-.636-.094,1.969,1.969,0,0,1-.542-.283,1.069,1.069,0,0,1-.353-.447,1.4,1.4,0,0,1-.141-.636,1.63,1.63,0,0,1,.212-.8,1.714,1.714,0,0,1,.565-.518,2.25,2.25,0,0,1,.848-.283,7.367,7.367,0,0,1,1.036-.094h.683v-.212a1.171,1.171,0,0,0-.071-.377.988.988,0,0,0-.212-.33.932.932,0,0,0-.353-.235,1.567,1.567,0,0,0-.518-.094,1.381,1.381,0,0,0-.471.047,3.081,3.081,0,0,0-.353.118,1.337,1.337,0,0,0-.306.188,1.794,1.794,0,0,1-.259.188l-.565-.565Zm2.59,1.931a3.448,3.448,0,0,0-.683.047,2.524,2.524,0,0,0-.636.141,1.322,1.322,0,0,0-.471.283.658.658,0,0,0-.188.471.7.7,0,0,0,.283.612,1.456,1.456,0,0,0,.777.188,1.379,1.379,0,0,0,.636-.118,1.026,1.026,0,0,0,.424-.33,1.173,1.173,0,0,0,.235-.447,1.792,1.792,0,0,0,.071-.495v-.306h-.495Z" transform="translate(-534.733 -217.145)" fill="#fff"/>
          <path id="Trazado_3342" data-name="Trazado 3342" d="M654.344,220.937a1.443,1.443,0,0,0-.4-.353,1.147,1.147,0,0,0-.589-.141,1.059,1.059,0,0,0-.565.141.437.437,0,0,0-.235.4.444.444,0,0,0,.141.353.989.989,0,0,0,.33.212,1.99,1.99,0,0,0,.4.118c.141.024.259.047.377.071.188.047.377.118.565.165a2.033,2.033,0,0,1,.447.259,1.3,1.3,0,0,1,.306.4,1.423,1.423,0,0,1,.118.565,1.484,1.484,0,0,1-.165.706,1.426,1.426,0,0,1-.447.471,1.9,1.9,0,0,1-.636.259,3.594,3.594,0,0,1-.706.071,2.934,2.934,0,0,1-1.06-.188,2,2,0,0,1-.824-.683l.706-.565a4.086,4.086,0,0,0,.495.4,1.225,1.225,0,0,0,.683.165c.283,0,.236,0,.353-.047a1.362,1.362,0,0,0,.33-.118.921.921,0,0,0,.235-.188.5.5,0,0,0,.094-.283.511.511,0,0,0-.118-.33.9.9,0,0,0-.306-.212,1.764,1.764,0,0,0-.377-.118q-.212-.035-.353-.071a5.119,5.119,0,0,1-.565-.165,2.2,2.2,0,0,1-.471-.236,1.116,1.116,0,0,1-.33-.4,1.454,1.454,0,0,1-.118-.589,1.249,1.249,0,0,1,.165-.659,1.36,1.36,0,0,1,.424-.471,2.272,2.272,0,0,1,.589-.283,2.177,2.177,0,0,1,.683-.094,2.584,2.584,0,0,1,.942.188,1.536,1.536,0,0,1,.73.612l-.73.542Z" transform="translate(-551.552 -216.839)" fill="#fff"/>
          <path id="Trazado_3343" data-name="Trazado 3343" d="M687.121,221.413a1.7,1.7,0,0,0-.542-.4,1.537,1.537,0,0,0-.683-.141,1.433,1.433,0,0,0-.659.141,1.239,1.239,0,0,0-.471.377,2.115,2.115,0,0,0-.283.565,2.032,2.032,0,0,0-.094.659,1.8,1.8,0,0,0,.118.636,1.306,1.306,0,0,0,.33.518,1.886,1.886,0,0,0,.494.353,1.4,1.4,0,0,0,.636.118,1.434,1.434,0,0,0,.659-.141,2.044,2.044,0,0,0,.518-.4l.659.659a2.069,2.069,0,0,1-.848.565,2.946,2.946,0,0,1-1.013.165,3,3,0,0,1-1.036-.188,2.35,2.35,0,0,1-.8-.518,2.048,2.048,0,0,1-.518-.8,2.943,2.943,0,0,1,0-2.072,2.35,2.35,0,0,1,.518-.8,2.048,2.048,0,0,1,.8-.518,2.9,2.9,0,0,1,1.036-.188,2.769,2.769,0,0,1,1.013.188,2.123,2.123,0,0,1,.848.589l-.706.636Z" transform="translate(-576.017 -217.221)" fill="#fff"/>
          <path id="Trazado_3344" data-name="Trazado 3344" d="M704.4,222.543a2.332,2.332,0,0,1,.212-.989,2.49,2.49,0,0,1,1.366-1.342,2.525,2.525,0,0,1,2.025,0,2.782,2.782,0,0,1,.824.542,2.3,2.3,0,0,1,.542.8,2.331,2.331,0,0,1,.212.989,2.518,2.518,0,0,1-.212,1.013,2.4,2.4,0,0,1-.542.8,2.78,2.78,0,0,1-.824.542,2.525,2.525,0,0,1-2.025,0,2.781,2.781,0,0,1-.824-.542,2.3,2.3,0,0,1-.542-.8A2.363,2.363,0,0,1,704.4,222.543Zm.989,0a2.187,2.187,0,0,0,.118.683,1.6,1.6,0,0,0,.33.542,1.886,1.886,0,0,0,.495.353,1.5,1.5,0,0,0,.659.118,1.933,1.933,0,0,0,.659-.118,1.563,1.563,0,0,0,.495-.353,1.752,1.752,0,0,0,.33-.542,2.039,2.039,0,0,0,0-1.366,1.6,1.6,0,0,0-.33-.542,1.886,1.886,0,0,0-.495-.353,1.5,1.5,0,0,0-.659-.118,1.934,1.934,0,0,0-.659.118,1.564,1.564,0,0,0-.495.353,1.752,1.752,0,0,0-.33.542A2.187,2.187,0,0,0,705.389,222.543Z" transform="translate(-592.071 -217.221)" fill="#fff"/>
          <path id="Trazado_3345" data-name="Trazado 3345" d="M731.3,220.118h.918v.754h0a1.443,1.443,0,0,1,.612-.636,1.923,1.923,0,0,1,.989-.235,1.9,1.9,0,0,1,1.248.447,1.5,1.5,0,0,1,.377.589,2.282,2.282,0,0,1,.141.848v3.132h-.918v-2.873a1.471,1.471,0,0,0-.094-.589,1.632,1.632,0,0,0-.235-.4.886.886,0,0,0-.353-.212,1.333,1.333,0,0,0-.424-.071,1.545,1.545,0,0,0-.542.094,1.337,1.337,0,0,0-.424.283,1.555,1.555,0,0,0-.283.518,2.29,2.29,0,0,0-.094.73v2.5H731.3v-4.875Z" transform="translate(-612.637 -217.221)" fill="#fff"/>
          <path id="Trazado_3346" data-name="Trazado 3346" d="M755.389,222.873a1.277,1.277,0,0,0,.141.589,1.65,1.65,0,0,0,.353.447,1.827,1.827,0,0,0,.518.283,1.756,1.756,0,0,0,.612.094,1.525,1.525,0,0,0,.754-.212,3,3,0,0,0,.589-.518l.706.542a2.58,2.58,0,0,1-2.167.989c-.942,0-.73-.071-1.036-.188a2.671,2.671,0,0,1-.8-.542,2.176,2.176,0,0,1-.495-.8,2.991,2.991,0,0,1,.024-2.025,2.349,2.349,0,0,1,.518-.8,2.4,2.4,0,0,1,.8-.542A2.356,2.356,0,0,1,756.92,220a2.293,2.293,0,0,1,1.083.235,2.017,2.017,0,0,1,.73.589,2.487,2.487,0,0,1,.424.824,3.075,3.075,0,0,1,.118.918v.33h-3.909Zm2.92-.73a2.025,2.025,0,0,0-.094-.565,1.068,1.068,0,0,0-.259-.447,1.257,1.257,0,0,0-.447-.306,1.575,1.575,0,0,0-.612-.118,1.667,1.667,0,0,0-.612.118,1.405,1.405,0,0,0-.471.33,1.379,1.379,0,0,0-.306.447,1.265,1.265,0,0,0-.118.495h2.92Z" transform="translate(-630.297 -217.221)" fill="#fff"/>
          <path id="Trazado_3347" data-name="Trazado 3347" d="M779.155,222.761l-1.719-2.261h1.2l1.177,1.719,1.154-1.719h1.13l-1.672,2.261,1.978,2.59h-1.2l-1.436-2.049-1.436,2.049H777.2l1.978-2.59Z" transform="translate(-647.728 -217.603)" fill="#fff"/>
          <path id="Trazado_3348" data-name="Trazado 3348" d="M801.9,210.783a.593.593,0,0,1,.212-.471.628.628,0,0,1,.471-.212.593.593,0,0,1,.471.212.628.628,0,0,1,.212.471.593.593,0,0,1-.212.471.627.627,0,0,1-.471.212.593.593,0,0,1-.471-.212A.628.628,0,0,1,801.9,210.783Zm.212,1.766h.918v4.875h-.918Z" transform="translate(-666.611 -209.653)" fill="#fff"/>
          <path id="Trazado_3349" data-name="Trazado 3349" d="M812,222.543a2.332,2.332,0,0,1,.212-.989,2.491,2.491,0,0,1,1.366-1.342,2.525,2.525,0,0,1,2.025,0,2.782,2.782,0,0,1,.824.542,2.3,2.3,0,0,1,.542.8,2.332,2.332,0,0,1,.212.989,2.52,2.52,0,0,1-.212,1.013,2.406,2.406,0,0,1-.542.8,2.78,2.78,0,0,1-.824.542,2.525,2.525,0,0,1-2.025,0,2.779,2.779,0,0,1-.824-.542,2.3,2.3,0,0,1-.542-.8A2.363,2.363,0,0,1,812,222.543Zm.989,0a2.187,2.187,0,0,0,.118.683,1.6,1.6,0,0,0,.33.542,1.886,1.886,0,0,0,.495.353,1.5,1.5,0,0,0,.659.118,1.933,1.933,0,0,0,.659-.118,1.563,1.563,0,0,0,.495-.353,1.75,1.75,0,0,0,.33-.542,2.038,2.038,0,0,0,0-1.366,1.594,1.594,0,0,0-.33-.542,1.886,1.886,0,0,0-.495-.353,1.5,1.5,0,0,0-.659-.118,1.934,1.934,0,0,0-.659.118,1.563,1.563,0,0,0-.495.353,1.755,1.755,0,0,0-.33.542A2.187,2.187,0,0,0,812.989,222.543Z" transform="translate(-674.333 -217.221)" fill="#fff"/>
          <path id="Trazado_3350" data-name="Trazado 3350" d="M838.9,220.118h.918v.754h0a1.444,1.444,0,0,1,.612-.636,1.923,1.923,0,0,1,.989-.235,1.9,1.9,0,0,1,1.248.447,1.5,1.5,0,0,1,.377.589,2.283,2.283,0,0,1,.141.848v3.132h-.918v-2.873a1.471,1.471,0,0,0-.094-.589,1.636,1.636,0,0,0-.235-.4.888.888,0,0,0-.353-.212,1.334,1.334,0,0,0-.424-.071,1.546,1.546,0,0,0-.542.094,1.337,1.337,0,0,0-.424.283,1.556,1.556,0,0,0-.283.518,2.288,2.288,0,0,0-.094.73v2.5H838.9v-4.875Z" transform="translate(-694.898 -217.221)" fill="#fff"/>
          <path id="Trazado_3351" data-name="Trazado 3351" d="M862.889,222.873a1.276,1.276,0,0,0,.141.589,1.65,1.65,0,0,0,.353.447,1.828,1.828,0,0,0,.518.283,1.756,1.756,0,0,0,.612.094,1.525,1.525,0,0,0,.754-.212,3,3,0,0,0,.589-.518l.706.542a2.58,2.58,0,0,1-2.167.989c-.942,0-.73-.071-1.036-.188a2.67,2.67,0,0,1-.8-.542,2.539,2.539,0,0,1-.495-.8,2.992,2.992,0,0,1,.024-2.025,2.352,2.352,0,0,1,.518-.8,2.406,2.406,0,0,1,.8-.542A2.355,2.355,0,0,1,864.42,220a2.293,2.293,0,0,1,1.083.235,2.017,2.017,0,0,1,.73.589,2.487,2.487,0,0,1,.424.824,3.075,3.075,0,0,1,.118.918v.33h-3.909Zm2.92-.73a2.023,2.023,0,0,0-.094-.565,1.066,1.066,0,0,0-.259-.447,1.256,1.256,0,0,0-.447-.306,1.576,1.576,0,0,0-.612-.118,1.668,1.668,0,0,0-.612.118,1.406,1.406,0,0,0-.471.33,1.382,1.382,0,0,0-.306.447,1.265,1.265,0,0,0-.118.495h2.92Z" transform="translate(-712.482 -217.221)" fill="#fff"/>
          <path id="Trazado_3352" data-name="Trazado 3352" d="M888.844,220.937a1.44,1.44,0,0,0-.4-.353,1.147,1.147,0,0,0-.589-.141,1.059,1.059,0,0,0-.565.141.437.437,0,0,0-.235.4.445.445,0,0,0,.141.353.988.988,0,0,0,.33.212,1.99,1.99,0,0,0,.4.118c.141.024.259.047.377.071.188.047.377.118.565.165a2.028,2.028,0,0,1,.447.259,1.294,1.294,0,0,1,.306.4,1.422,1.422,0,0,1,.118.565,1.484,1.484,0,0,1-.165.706,1.427,1.427,0,0,1-.447.471,1.9,1.9,0,0,1-.636.259,3.594,3.594,0,0,1-.706.071,2.933,2.933,0,0,1-1.06-.188,2,2,0,0,1-.824-.683l.706-.565a4.081,4.081,0,0,0,.495.4,1.225,1.225,0,0,0,.683.165c.283,0,.235,0,.353-.047a1.362,1.362,0,0,0,.33-.118.92.92,0,0,0,.235-.188.5.5,0,0,0,.094-.283.51.51,0,0,0-.118-.33.9.9,0,0,0-.306-.212,1.764,1.764,0,0,0-.377-.118q-.212-.035-.353-.071a5.111,5.111,0,0,1-.565-.165,2.2,2.2,0,0,1-.471-.236,1.118,1.118,0,0,1-.33-.4,1.456,1.456,0,0,1-.118-.589,1.249,1.249,0,0,1,.165-.659,1.36,1.36,0,0,1,.424-.471,2.27,2.27,0,0,1,.589-.283,2.177,2.177,0,0,1,.683-.094,2.585,2.585,0,0,1,.942.188,1.536,1.536,0,0,1,.73.612l-.73.542Z" transform="translate(-730.83 -216.839)" fill="#fff"/>
          <path id="Trazado_3353" data-name="Trazado 3353" d="M907.683,236.966a.593.593,0,0,1-.471-.212.628.628,0,0,1-.212-.471.593.593,0,0,1,.212-.471.628.628,0,0,1,.471-.212.593.593,0,0,1,.471.212.628.628,0,0,1,.212.471.593.593,0,0,1-.212.471A.627.627,0,0,1,907.683,236.966Z" transform="translate(-746.961 -229.148)" fill="#fff"/>
        </g>
      </g>
    </g>
  </g>
</svg>
