<svg xmlns="http://www.w3.org/2000/svg" xmlns:xlink="http://www.w3.org/1999/xlink" width="270.322" height="71.302" viewBox="0 0 270.322 71.302">
  <defs>
    <filter id="Trazado_3251" x="206.97" y="37.375" width="33.513" height="33.513" filterUnits="userSpaceOnUse">
      <feOffset dy="3" input="SourceAlpha"/>
      <feGaussianBlur stdDeviation="5" result="blur"/>
      <feFlood flood-opacity="0.412"/>
      <feComposite operator="in" in2="blur"/>
      <feComposite in="SourceGraphic"/>
    </filter>
    <filter id="Trazado_3252" x="236.809" y="37.375" width="33.513" height="33.513" filterUnits="userSpaceOnUse">
      <feOffset dy="3" input="SourceAlpha"/>
      <feGaussianBlur stdDeviation="5" result="blur-2"/>
      <feFlood flood-opacity="0.412"/>
      <feComposite operator="in" in2="blur-2"/>
      <feComposite in="SourceGraphic"/>
    </filter>
    <filter id="Trazado_3253" x="0" y="0" width="76.311" height="71.302" filterUnits="userSpaceOnUse">
      <feOffset dy="3" input="SourceAlpha"/>
      <feGaussianBlur stdDeviation="5" result="blur-3"/>
      <feFlood flood-opacity="0.412"/>
      <feComposite operator="in" in2="blur-3"/>
      <feComposite in="SourceGraphic"/>
    </filter>
    <filter id="Trazado_3254" x="54.825" y="0.458" width="57.648" height="70.412" filterUnits="userSpaceOnUse">
      <feOffset dy="3" input="SourceAlpha"/>
      <feGaussianBlur stdDeviation="5" result="blur-4"/>
      <feFlood flood-opacity="0.412"/>
      <feComposite operator="in" in2="blur-4"/>
      <feComposite in="SourceGraphic"/>
    </filter>
    <filter id="Trazado_3255" x="80.256" y="0.327" width="69.173" height="70.543" filterUnits="userSpaceOnUse">
      <feOffset dy="3" input="SourceAlpha"/>
      <feGaussianBlur stdDeviation="5" result="blur-5"/>
      <feFlood flood-opacity="0.412"/>
      <feComposite operator="in" in2="blur-5"/>
      <feComposite in="SourceGraphic"/>
    </filter>
    <filter id="Trazado_3256" x="126.659" y="0.511" width="36.197" height="70.394" filterUnits="userSpaceOnUse">
      <feOffset dy="3" input="SourceAlpha"/>
      <feGaussianBlur stdDeviation="5" result="blur-6"/>
      <feFlood flood-opacity="0.412"/>
      <feComposite operator="in" in2="blur-6"/>
      <feComposite in="SourceGraphic"/>
    </filter>
    <filter id="Trazado_3257" x="144.245" y="0.371" width="66.943" height="70.631" filterUnits="userSpaceOnUse">
      <feOffset dy="3" input="SourceAlpha"/>
      <feGaussianBlur stdDeviation="5" result="blur-7"/>
      <feFlood flood-opacity="0.412"/>
      <feComposite operator="in" in2="blur-7"/>
      <feComposite in="SourceGraphic"/>
    </filter>
    <filter id="Trazado_3258" x="190.514" y="20.522" width="42.396" height="50.33" filterUnits="userSpaceOnUse">
      <feOffset dy="3" input="SourceAlpha"/>
      <feGaussianBlur stdDeviation="5" result="blur-8"/>
      <feFlood flood-opacity="0.412"/>
      <feComposite operator="in" in2="blur-8"/>
      <feComposite in="SourceGraphic"/>
    </filter>
    <filter id="Trazado_3259" x="214.057" y="20.91" width="49.275" height="49.96" filterUnits="userSpaceOnUse">
      <feOffset dy="3" input="SourceAlpha"/>
      <feGaussianBlur stdDeviation="5" result="blur-9"/>
      <feFlood flood-opacity="0.412"/>
      <feComposite operator="in" in2="blur-9"/>
      <feComposite in="SourceGraphic"/>
    </filter>
  </defs>
  <g id="logo" transform="translate(15 12)">
    <g transform="matrix(1, 0, 0, 1, -15, -12)" filter="url(#Trazado_3251)">
      <path id="Trazado_3251-2" data-name="Trazado 3251" d="M267.4,69.486a1.756,1.756,0,1,1-1.756-1.756A1.756,1.756,0,0,1,267.4,69.486Z" transform="translate(-41.92 -18.35)" fill="#fff"/>
    </g>
    <g transform="matrix(1, 0, 0, 1, -15, -12)" filter="url(#Trazado_3252)">
      <path id="Trazado_3252-2" data-name="Trazado 3252" d="M301.383,69.486a1.756,1.756,0,1,1-1.756-1.756A1.756,1.756,0,0,1,301.383,69.486Z" transform="translate(-46.06 -18.35)" fill="#fff"/>
    </g>
    <g transform="matrix(1, 0, 0, 1, -15, -12)" filter="url(#Trazado_3253)">
      <path id="Trazado_3253-2" data-name="Trazado 3253" d="M67.153,37.6a15.561,15.561,0,0,0-3.618-5.787,14.6,14.6,0,0,0-5.436-3.4,21.266,21.266,0,0,0-13.488,0,14.6,14.6,0,0,0-5.436,3.4A15.446,15.446,0,0,0,35.558,37.6,23.841,23.841,0,0,0,34.25,45.9a23.947,23.947,0,0,0,1.308,8.325,15.587,15.587,0,0,0,3.618,5.787,14.568,14.568,0,0,0,5.436,3.381,19.951,19.951,0,0,0,6.709,1.142A20.2,20.2,0,0,0,58.1,63.43a14.568,14.568,0,0,0,5.436-3.381,15.7,15.7,0,0,0,3.618-5.787,24.157,24.157,0,0,0,1.265-8.36,24.052,24.052,0,0,0-1.3-8.307M29.859,37.13a18.248,18.248,0,0,1,4.759-6.507,20.733,20.733,0,0,1,7.332-4.057,29.856,29.856,0,0,1,9.335-1.4,30.155,30.155,0,0,1,9.4,1.4,20.618,20.618,0,0,1,7.324,4.057,18.168,18.168,0,0,1,4.795,6.507A21.532,21.532,0,0,1,74.5,45.911a21.523,21.523,0,0,1-1.695,8.781,18.274,18.274,0,0,1-4.768,6.516,19.811,19.811,0,0,1-7.324,3.969,32.122,32.122,0,0,1-9.4,1.291,31.815,31.815,0,0,1-9.335-1.3A19.916,19.916,0,0,1,34.654,61.2a18.362,18.362,0,0,1-4.759-6.516A21.523,21.523,0,0,1,28.2,45.9a21.532,21.532,0,0,1,1.695-8.781" transform="translate(-13.2 -13.17)" fill="#fff"/>
    </g>
    <g transform="matrix(1, 0, 0, 1, -15, -12)" filter="url(#Trazado_3254)">
      <path id="Trazado_3254-2" data-name="Trazado 3254" d="M100.737,45.8a20.821,20.821,0,0,0,4.022-.4,11.117,11.117,0,0,0,3.8-1.5,8.465,8.465,0,0,0,2.828-3,9.791,9.791,0,0,0,1.1-4.909,9.66,9.66,0,0,0-.755-4.118,5.822,5.822,0,0,0-2.108-2.468,8.43,8.43,0,0,0-3.293-1.2,26.572,26.572,0,0,0-4.391-.325H96.285V45.334a20.416,20.416,0,0,0,4.452.465M90.63,25.69c1,.07,15.279,0,16.2.053a21.558,21.558,0,0,1,2.924.36,16.6,16.6,0,0,1,3.038.878,8.781,8.781,0,0,1,2.749,1.7,8.491,8.491,0,0,1,1.976,2.792,10.187,10.187,0,0,1,.746,4.154,10.248,10.248,0,0,1-1.756,6.287,12.7,12.7,0,0,1-4.391,3.776,18.441,18.441,0,0,1-5.523,1.818,32.649,32.649,0,0,1-5.181.474H98.779a20.193,20.193,0,0,1-2.494-.176v3.232c0,2.59.044,5.137.149,7.649s.228,4.979.351,7.411c-.966-.07-1.993-.123-3.082-.123s-2.108.053-3.073.123c.123-2.432.123-37.821,0-40.394" transform="translate(-20.8 -13.23)" fill="#fff"/>
    </g>
    <g transform="matrix(1, 0, 0, 1, -15, -12)" filter="url(#Trazado_3255)">
      <path id="Trazado_3255-2" data-name="Trazado 3255" d="M131.366,48.073c1.071,0,2.187,0,3.337.053s2.274.061,3.346.061h3.469c1.15,0,2.3-.053,3.46-.088L138.11,33.382Zm27.4,18.01a13.707,13.707,0,0,0-1.633-.114h-3.284a13.707,13.707,0,0,0-1.633.114c-.29-.878-.685-1.958-1.177-3.214s-1.045-2.573-1.633-3.943-1.212-2.749-1.835-4.171-1.194-2.749-1.756-4.022c-1.326,0-2.634-.07-4.031-.088s-2.713,0-4.075,0H133.93c-1.238,0-2.494.053-3.767.088q-1.976,4.522-3.592,8.606c-1.071,2.713-1.87,4.97-2.415,6.744a22.892,22.892,0,0,0-4.566,0q5.005-10.125,9.765-20.153t9.58-20.39h1.212l3.205,7.271,3.513,7.9q1.756,4,3.592,7.9t3.363,7.324c1.054,2.266,2,4.276,2.845,6.05s1.537,3.135,2.072,4.057" transform="translate(-24.33 -13.21)" fill="#fff"/>
    </g>
    <g transform="matrix(1, 0, 0, 1, -15, -12)" filter="url(#Trazado_3256)">
      <path id="Trazado_3256-2" data-name="Trazado 3256" d="M172.483,25.75c.544.088,1.071.149,1.572.211a12.882,12.882,0,0,0,3,0c.509-.061,1.027-.123,1.572-.211,0,2.634-.132,37.926,0,40.394-.966-.07-1.985-.123-3.073-.123s-2.107.053-3.073.123c-.158-2.362.123-37.76,0-40.394" transform="translate(-30.77 -13.24)" fill="#fff"/>
    </g>
    <g transform="matrix(1, 0, 0, 1, -15, -12)" filter="url(#Trazado_3257)">
      <path id="Trazado_3257-2" data-name="Trazado 3257" d="M212.613,51.056q-8.035-8.079-16.079-16.07c0,1.089-.079,2.529-.123,4.391s-.053,4.285-.053,7.411V49.8c0,1.194,0,2.45.061,3.767s.053,2.634.088,4,.088,2.634.123,3.767.088,2.169.132,3.038.079,1.37.123,1.686a16.687,16.687,0,0,0-2.169-.114c-.817,0-2.257.114-2.257.114V25.59h2.09l8.044,8.149q4.294,4.391,8.535,8.632l8.044,8.044c2.529,2.538,4.18,4.689,6.085,6.463v-31.2a12.452,12.452,0,0,0,2.2.211,6.376,6.376,0,0,0,1.941-.211V66.221h-2.222c-4.742-5.137-9.22-9.774-14.577-15.165" transform="translate(-33.21 -13.22)" fill="#fff"/>
    </g>
    <g transform="matrix(1, 0, 0, 1, -15, -12)" filter="url(#Trazado_3258)">
      <path id="Trazado_3258-2" data-name="Trazado 3258" d="M246.775,65.839a5.05,5.05,0,0,0,1.01.966,5.487,5.487,0,0,0,1.379.7,5.823,5.823,0,0,0,1.756.263,4.759,4.759,0,0,0,1.818-.334,3.969,3.969,0,0,0,1.37-.878,3.749,3.749,0,0,0,.878-1.308,4.39,4.39,0,0,0,.3-1.607,2.924,2.924,0,0,0-.72-2.081,5.98,5.98,0,0,0-1.756-1.282,20.581,20.581,0,0,0-2.3-.94,12.813,12.813,0,0,1-2.3-1.063,6.252,6.252,0,0,1-1.756-1.642,4.636,4.636,0,0,1-.711-2.687,5.066,5.066,0,0,1,.457-2.178,4.672,4.672,0,0,1,1.326-1.695,6.375,6.375,0,0,1,2.011-1.133,8.852,8.852,0,0,1,2.74-.4,8.614,8.614,0,0,1,2.529.334,6.384,6.384,0,0,1,1.976,1.01,5.433,5.433,0,0,0-.448,1.027,11.331,11.331,0,0,0-.369,1.37h-.4a6.9,6.9,0,0,0-.413-.878,3.091,3.091,0,0,0-.7-.878,3.8,3.8,0,0,0-1.045-.667,3.512,3.512,0,0,0-1.466-.281,4.742,4.742,0,0,0-1.563.263,3.741,3.741,0,0,0-1.247.729,2.968,2.968,0,0,0-.817,1.124,3.512,3.512,0,0,0-.29,1.423,3.012,3.012,0,0,0,.711,2.116,6.4,6.4,0,0,0,1.756,1.3,17.7,17.7,0,0,0,2.3.931,14.253,14.253,0,0,1,2.292,1.01,5.735,5.735,0,0,1,1.756,1.554,4.03,4.03,0,0,1,.711,2.5,6.252,6.252,0,0,1-.5,2.485,5.919,5.919,0,0,1-1.458,2.028,6.674,6.674,0,0,1-2.345,1.344,9.949,9.949,0,0,1-3.152.474,7.771,7.771,0,0,1-4.935-1.475,6.08,6.08,0,0,0,.378-1.185c.07-.351.14-.8.2-1.352h.369a6.244,6.244,0,0,0,.65,1.036" transform="translate(-39.64 -16.02)" fill="#fff"/>
    </g>
    <g transform="matrix(1, 0, 0, 1, -15, -12)" filter="url(#Trazado_3259)">
      <path id="Trazado_3259-2" data-name="Trazado 3259" d="M277.72,60.071h6.7l-3.381-7.245ZM291.2,68.94a5.161,5.161,0,0,0-.808-.061h-1.607a5.161,5.161,0,0,0-.808.061c-.141-.439-.342-.966-.58-1.589s-.509-1.256-.808-1.932-.588-1.361-.878-2.055-.588-1.361-.878-1.985l-1.976-.044H279.02l-1.862.044q-.975,2.23-1.756,4.233c-.527,1.335-.922,2.459-1.185,3.328a10.388,10.388,0,0,0-2.257,0q2.468-4.988,4.812-9.923c1.563-3.284,3.135-6.639,4.716-10.037h.58c.492,1.1,1.019,2.292,1.581,3.574l1.756,3.89c.588,1.308,1.177,2.634,1.756,3.908s1.142,2.494,1.66,3.609l1.4,2.986c.421.878.755,1.537,1.019,1.993" transform="translate(-42.9 -16.07)" fill="#fff"/>
    </g>
  </g>
</svg>
